<svg version="1.1" xmlns="http://www.w3.org/2000/svg" xmlns:xlink="http://www.w3.org/1999/xlink">
<defs>

<symbol id="logo1" viewBox="0 0 149 38" fill="none" >
<g clip-path="url(#clip0_150_1938)">
<path d="M38.0769 6.63668C38.0769 5.25402 38.0769 4.14789 38.0769 2.76528C38.0769 1.9357 38.0769 0.829579 
38.0769 0H36.9487C31.8718 0 28.2051 3.59486 28.2051 8.57233V11.6142C28.2051 12.1672 28.2051 12.7203 28.2051 
13.2733V14.3794C28.2051 15.7621 28.2051 17.1447 28.2051 18.5274C28.2051 23.2283 23.9744 27.3763 
19.1795 27.3763C14.1026 27.3763 10.1538 23.5049 10.1538 18.5274C10.1538 17.6977 10.1538 16.5917 10.1538
 15.7621C10.1538 14.656 10.1538 13.5499 10.1538 12.4437C10.1538 10.508 10.1538 8.84887 9.87179 6.91317C9.30769 
 3.8714 6.48718 0.829578 3.10256 0.27649C2.25641 -4.6245e-07 1.12821 0 0 0V13.2733V19.0804C0 20.7396 0.282051 
 22.3987 0.846154 24.3344C2.82051 30.1415 7.33333 34.2894 12.9744 36.2251C18.6154 38.1608 24.8205 37.3313 29.6154 
 33.7364C34.6923 30.4181 37.5128 25.7171 37.7949 19.91C38.0769 15.7621 38.0769 11.0611 38.0769 6.63668Z" fill="white"/>
<path d="M49.3969 36.552C48.4369 36.552 47.6209 36.136 46.9489 35.304C46.3089 34.472 45.9889 33.496 45.9889 32.376C45.9889 29.912 47.2849 26.84 49.8769 23.16C51.1889 21.304 52.5649 19.576 54.0049 17.976C55.4449 16.376 56.9649 14.904 58.5649 13.56C61.7969 10.872 64.2609 9.528 65.9569 9.528C66.5329 9.528 66.8209 9.704 66.8209 10.056C66.8209 10.184 66.7409 10.28 66.5809 10.344C64.5649 11.368 62.6769 12.648 60.9169 14.184C60.0209 14.952 59.0609 15.864 58.0369 16.92C57.0449 17.976 55.9569 19.16 54.7729 20.472C52.4369 23.096 50.6129 25.592 49.3009 27.96C48.0209 30.328 47.3809 32.184 47.3809 33.528C47.3809 34.744 47.8769 35.352 48.8689 35.352C49.7009 35.352 50.4689 35.208 51.1729 34.92C51.8129 34.696 53.0449 33.768 54.8689 32.136C55.7969 31.336 56.9809 30.2 58.4209 28.728C59.8929 27.224 61.6209 25.384 63.6049 23.208C67.5729 18.856 69.7969 16.68 70.2769 16.68C70.7569 16.68 70.9969 16.872 70.9969 17.256C70.8049 20.168 70.7089 22.344 70.7089 23.784C70.7089 29.96 71.4289 33.048 72.8689 33.048C74.3089 33.048 75.5889 31.624 76.7089 28.776C77.8289 25.896 78.3889 23.192 78.3889 20.664C78.3889 16.792 77.3969 14.536 75.4129 13.896C75.3169 13.832 75.2689 13.784 75.2689 13.752C75.2689 13.432 75.7809 13.272 76.8049 13.272C77.8289 13.272 78.6609 13.944 79.3009 15.288C79.9409 16.6 80.2609 18.376 80.2609 20.616C80.2609 24.168 79.5409 27.272 78.1009 29.928C76.6609 32.552 74.8369 33.864 72.6289 33.864C70.0049 33.864 68.6929 31.176 68.6929 25.8C68.6929 23.72 68.8849 21.272 69.2689 18.456C68.8209 18.904 68.0849 19.736 67.0609 20.952C66.0369 22.168 64.6769 23.768 62.9809 25.752C61.3489 27.704 59.8609 29.368 58.5169 30.744C57.2049 32.12 56.0369 33.224 55.0129 34.056C52.9649 35.72 51.0929 36.552 49.3969 36.552ZM98.9147 35.208C96.4827 35.208 94.4987 34.504 92.9627 33.096C91.4587 31.72 90.7067 29.832 90.7067 27.432C90.7067 27.08 90.7227 26.696 90.7547 26.28C90.8187 25.864 90.8827 25.416 90.9467 24.936C90.7867 24.936 90.5787 24.664 90.3227 24.12C90.0987 23.576 89.9867 23.224 89.9867 23.064C89.9867 22.872 90.0507 22.776 90.1787 22.776L91.5707 23.064C92.8827 19.32 95.4267 16.04 99.2027 13.224C103.011 10.376 106.707 8.952 110.291 8.952C111.539 8.952 112.387 9.08 112.835 9.336C113.187 8.152 113.539 7.496 113.891 7.368C113.987 7.336 114.099 7.32 114.227 7.32C115.347 7.32 115.907 7.528 115.907 7.944C115.811 7.944 115.443 8.392 114.803 9.288C114.611 9.576 114.291 10.056 113.843 10.728C113.427 11.368 113.091 11.896 112.835 12.312C112.611 12.728 112.387 13.176 112.163 13.656C111.971 14.104 111.875 14.456 111.875 14.712L112.067 15.432C112.067 15.496 112.035 15.528 111.971 15.528C111.491 15.528 111.251 14.952 111.251 13.8C111.251 12.68 111.619 11.48 112.355 10.2C112.131 10.168 111.907 10.152 111.683 10.152C111.491 10.12 111.315 10.104 111.155 10.104C107.827 10.104 104.403 11.448 100.883 14.136C97.3307 16.792 94.9627 19.8 93.7787 23.16C94.9627 23.16 96.1467 23.16 97.3307 23.16C98.5467 23.128 99.6347 23.112 100.595 23.112C101.587 23.08 102.323 23.048 102.803 23.016C103.763 22.952 104.739 22.84 105.731 22.68C106.755 22.52 107.779 22.312 108.803 22.056C109.027 22.056 109.139 22.136 109.139 22.296C109.139 22.904 107.139 23.512 103.139 24.12C99.1067 24.696 95.7947 25.016 93.2027 25.08C93.1067 25.688 93.0587 26.264 93.0587 26.808C93.0587 28.952 93.7787 30.696 95.2187 32.04C96.6587 33.352 98.4987 34.008 100.739 34.008C105.219 34.008 109.171 32.152 112.595 28.44C113.043 27.992 113.363 27.768 113.555 27.768C113.683 27.768 113.747 27.864 113.747 28.056C113.747 28.344 113.603 28.648 113.315 28.968C111.619 30.888 109.395 32.408 106.643 33.528C103.859 34.648 101.283 35.208 98.9147 35.208ZM136.302 34.632C134.926 34.632 133.534 34.392 132.126 33.912C130.75 33.496 130.062 32.92 130.062 32.184C130.062 32.12 130.094 32.088 130.158 32.088L130.446 32.184C131.182 32.664 132.11 32.904 133.23 32.904C135.95 32.904 138.35 32.248 140.43 30.936C142.478 29.656 143.502 28.408 143.502 27.192C143.502 25.944 142.686 24.92 141.054 24.12C140.158 23.672 139.262 23.352 138.366 23.16C137.502 22.968 136.686 22.872 135.918 22.872C134.638 22.872 133.598 23.048 132.798 23.4C132.478 23.368 132.318 23.16 132.318 22.776C132.318 22.328 132.654 22.008 133.326 21.816L134.862 21.576C138.414 20.616 141.182 19.384 143.166 17.88C145.15 16.344 146.142 14.632 146.142 12.744C146.142 11.816 145.614 11.064 144.558 10.488C143.502 9.912 141.902 9.624 139.758 9.624C137.646 9.624 135.87 9.816 134.43 10.2C133.726 10.36 132.798 10.632 131.646 11.016C130.526 11.368 129.118 11.832 127.422 12.408C124.19 13.496 122.51 14.04 122.382 14.04C121.838 14.04 121.566 13.656 121.566 12.888C121.566 12.536 121.678 12.312 121.902 12.216C127.918 9.816 133.71 8.616 139.278 8.616C145.71 8.616 148.926 10.184 148.926 13.32C148.926 14.984 147.79 16.664 145.518 18.36C144.398 19.192 143.134 19.912 141.726 20.52C140.35 21.128 138.83 21.64 137.166 22.056C139.63 22.248 141.598 22.872 143.07 23.928C144.542 24.952 145.278 26.36 145.278 28.152C145.278 29.88 144.382 31.4 142.59 32.712C140.83 33.992 138.734 34.632 136.302 34.632ZM125.982 37.656C125.438 37.656 124.958 37.224 124.542 36.36C124.158 35.496 123.966 34.488 123.966 33.336C123.966 29.144 126.286 23.144 130.926 15.336C132.27 12.808 133.166 11.544 133.614 11.544C134.062 11.544 134.542 11.656 135.054 11.88C135.566 12.072 135.822 12.264 135.822 12.456C135.822 12.488 135.806 12.536 135.774 12.6C128.862 22.616 125.406 30.024 125.406 34.824C125.406 35.432 125.534 36.024 125.79 36.6C126.046 37.176 126.206 37.464 126.27 37.464C126.206 37.592 126.11 37.656 125.982 37.656Z" fill="#A8EFFF"/>
</g>
<defs>
<clipPath id="clip0_150_1938">
<rect width="149" height="38" fill="white"/>
</clipPath>
</defs>
</symbol>

<symbol  viewBox="0 0 45 45"  >
  <rect x="2" y="2" width="38" height="38" rx="19" stroke="#82A5CE" stroke-width="4"/>
  <g clip-path="url(#clip0_2001_96)">
    <g clip-path="url(#clip1_2001_96)">
      <path  fill-rule="evenodd" clip-rule="evenodd" d="M16.4732 20.9366L13.2473 19.7549C12.9196 19.6344 12.9168 19.1804 13.2435 19.0568L26.4826 14.0442C26.7633 13.9377 27.0529 14.179 26.9917 14.4683L24.6159 25.6847C24.5599 25.9495 24.2435 26.0696 24.0202 25.9103L20.777 23.5993C20.58 23.459 20.3115 23.4665 20.1231 23.6172L18.3249 25.0559C18.1161 25.2234 17.8017 25.1301 17.7218 24.8777L16.4732 20.9366ZM23.8251 16.4966L17.5205 20.3076C17.2789 20.454 17.1651 20.7404 17.2432 21.0085L17.9249 23.3593C17.9733 23.5258 18.2196 23.5087 18.2431 23.3366L18.4203 22.0475C18.4537 21.8048 18.5717 21.5812 18.7546 21.4141L23.9577 16.6672C24.055 16.5786 23.9384 16.4283 23.8251 16.4966Z" fill="#3C3C43"/>
    </g>
  </g>
</symbol>

<symbol id="telegram"  viewBox="0 0 24 24" 
xmlns="http://www.w3.org/2000/svg">
<path d="m20.665 3.717-17.73 6.837c-1.21.486-1.203 1.161-.222
 1.462l4.552 1.42 10.532-6.645c.498-.303.953-.14.579.192l-8.533 
 7.701h-.002l.002.001-.314 4.692c.46 0 .663-.211.921-.46l2.211-2.15
  4.599 3.397c.848.467 1.457.227 1.668-.785l3.019-14.228c.309-1.239-.473-1.8-1.282-1.434z"/>
</symbol> -->



<symbol  version="1.1" id="whatsapp"  
	 viewBox="0 0 308 308" xml:space="preserve">
<g id="XMLID_468_">
	<path id="XMLID_469_" d="M227.904,176.981c-0.6-0.288-23.054-11.345-27.044-12.781c-1.629-0.585-3.374-1.156-5.23-1.156
		c-3.032,0-5.579,1.511-7.563,4.479c-2.243,3.334-9.033,11.271-11.131,13.642c-0.274,0.313-0.648,0.687-0.872,0.687
		c-0.201,0-3.676-1.431-4.728-1.888c-24.087-10.463-42.37-35.624-44.877-39.867c-0.358-0.61-0.373-0.887-0.376-0.887
		c0.088-0.323,0.898-1.135,1.316-1.554c1.223-1.21,2.548-2.805,3.83-4.348c0.607-0.731,1.215-1.463,1.812-2.153
		c1.86-2.164,2.688-3.844,3.648-5.79l0.503-1.011c2.344-4.657,0.342-8.587-0.305-9.856c-0.531-1.062-10.012-23.944-11.02-26.348
		c-2.424-5.801-5.627-8.502-10.078-8.502c-0.413,0,0,0-1.732,0.073c-2.109,0.089-13.594,1.601-18.672,4.802
		c-5.385,3.395-14.495,14.217-14.495,33.249c0,17.129,10.87,33.302,15.537,39.453c0.116,0.155,0.329,0.47,0.638,0.922
		c17.873,26.102,40.154,45.446,62.741,54.469c21.745,8.686,32.042,9.69,37.896,9.69c0.001,0,0.001,0,0.001,0
		c2.46,0,4.429-0.193,6.166-0.364l1.102-0.105c7.512-0.666,24.02-9.22,27.775-19.655c2.958-8.219,3.738-17.199,1.77-20.458
		C233.168,179.508,230.845,178.393,227.904,176.981z"/>
	<path id="XMLID_470_" d="M156.734,0C73.318,0,5.454,67.354,5.454,150.143c0,26.777,7.166,52.988,20.741,75.928L0.212,302.716
		c-0.484,1.429-0.124,3.009,0.933,4.085C1.908,307.58,2.943,308,4,308c0.405,0,0.813-0.061,1.211-0.188l79.92-25.396
		c21.87,11.685,46.588,17.853,71.604,17.853C240.143,300.27,308,232.923,308,150.143C308,67.354,240.143,0,156.734,0z
		 M156.734,268.994c-23.539,0-46.338-6.797-65.936-19.657c-0.659-0.433-1.424-0.655-2.194-0.655c-0.407,0-0.815,0.062-1.212,0.188
		l-40.035,12.726l12.924-38.129c0.418-1.234,0.209-2.595-0.561-3.647c-14.924-20.392-22.813-44.485-22.813-69.677
		c0-65.543,53.754-118.867,119.826-118.867c66.064,0,119.812,53.324,119.812,118.867
		C276.546,215.678,222.799,268.994,156.734,268.994z"/>
</g>
</symbol>




<symbol  id="arrow" viewBox="0 0 64 64"  fill="none" ><polyline points="48 28 48 16 36 16"/><line x1="48" y1="16" x2="16" y2="48"/>
</symbol>


<symbol id="attach"  viewBox="0 0 24 24" fill="none" >
<g id="style=linear">
<g id="attach">
<path id="vector" d="M20.6475 10.6158L11.8855 19.3778C9.93289 21.3304 6.76706 21.3304 4.81444 19.3778C2.86182 17.4252 2.86182 14.2594 4.81444 12.3068L12.9462 4.17503C14.313 2.80819 16.5291 2.80819 17.8959 4.17503C19.2628 5.54186 19.2628 7.75794 17.8959 9.12478L10.1024 16.9183C9.32132 17.6994 8.05499 17.6994 7.27394 16.9183C6.4929 16.1373 6.49289 14.8709 7.27394 14.0899L14.468 6.89585"  stroke-width="1.5" stroke-linecap="round"/>
</g>
</g>
</symbol>




<symbol id="place"  viewBox="0 0 800 640"  >
  <path d="M218.361 585.486C191.347 576.881 164.337 579.486 147.453 590.455C153.856 608.789 173.694 626.23 200.719 634.8C227.722 643.383 254.737 640.8 271.614 629.82C265.212 611.497 245.369 594.022 218.361 585.486Z" />
  <path d="M197.818 556.434C211.065 542.734 217.593 518.973 213.189 493.753C208.787 468.547 194.618 448.616 177.558 440.55C164.323 454.237 157.767 478.011 162.183 503.23C166.583 528.428 180.764 548.392 197.818 556.434Z"  />
  <path d="M106.873 481.57C83.5539 466.85 57.0898 462.937 37.8945 469.511C38.8008 488.764 52.7648 510.334 76.0852 525.055C99.3992 539.762 125.857 543.675 145.059 537.091C144.145 517.825 130.188 496.291 106.873 481.57Z"  />
  <path d="M123.852 347.789C109.366 358.481 99.5287 379.673 99.6615 403.859C99.7865 428.047 109.844 448.825 124.443 458.933C138.933 448.217 148.766 427.048 148.635 402.852C148.504 378.675 138.446 357.908 123.852 347.789Z"  />
  <path d="M86.1533 308.514C103.981 304.889 122.375 289.858 133.183 267.933C144.019 246.008 144.364 223.036 135.839 207.8C117.997 211.437 99.5986 226.456 88.7923 248.405C77.9673 270.306 77.6048 293.289 86.1533 308.514Z"  />
  <path d="M60.0436 253.109C73.4842 242.347 82.0561 221.752 80.9655 198.622C79.8936 175.491 69.4467 156.009 55.0592 146.853C41.617 157.605 33.0311 178.187 34.1248 201.33C35.1858 224.447 45.6498 243.953 60.0436 253.109Z"  />
  <path d="M194.75 102.68C178.314 101.039 157.822 109.161 141.65 125.317C125.485 141.472 117.958 161.344 120.488 176.867C136.935 178.508 157.416 170.386 173.582 154.23C189.747 138.075 197.28 118.225 194.75 102.68Z" />
  <path d="M145.814 86.3641C152.812 66.7906 150.919 47.4 142.292 35.4219C127.622 40.2859 113.59 54.8 106.579 74.3859C99.5748 93.9359 101.475 113.339 110.114 125.317C124.772 120.428 138.803 105.937 145.814 86.3641Z" />
  <path d="M225.212 48.2031C240.334 33.2297 247.441 14.7797 245.135 0.289053C229.852 -1.28282 210.76 6.18749 195.621 21.1719C180.516 36.1328 173.426 54.6062 175.709 69.0625C191.004 70.6562 210.101 63.1859 225.212 48.2031Z"  />
  <path d="M54.5816 330.119C41.3597 309.788 21.4816 297.419 3.42687 296.306C-3.245 312.691 -0.232504 335.522 12.9722 355.831C26.1784 376.152 46.0737 388.531 64.1269 389.633C70.7816 373.237 67.7878 350.416 54.5816 330.119Z" />
  <path d="M581.642 585.486C554.634 594.022 534.795 611.497 528.383 629.82C545.261 640.8 572.269 643.383 599.289 634.8C626.309 626.228 646.147 608.789 652.548 590.455C635.659 579.484 608.662 576.881 581.642 585.486Z"  />
  <path d="M586.817 493.755C582.411 518.973 588.941 542.734 602.192 556.436C619.242 548.392 633.436 528.43 637.83 503.233C642.236 478.014 635.685 454.241 622.444 440.553C605.383 448.617 591.224 468.547 586.817 493.755Z"  />
  <path d="M693.131 481.57C669.819 496.291 655.855 517.826 654.938 537.091C674.144 543.675 700.614 539.762 723.917 525.055C747.242 510.333 761.217 488.764 762.123 469.511C742.927 462.937 716.458 466.85 693.131 481.57Z" />
  <path d="M676.148 347.789C661.555 357.908 651.481 378.675 651.376 402.85C651.239 427.048 661.072 448.216 675.54 458.931C690.156 448.823 700.208 428.045 700.334 403.858C700.472 379.672 690.64 358.481 676.148 347.789Z"  />
  <path d="M664.183 207.8C655.647 223.037 655.979 246.008 666.811 267.933C677.629 289.858 696.022 304.889 713.864 308.514C722.401 293.289 722.033 270.306 711.214 248.405C700.415 226.455 682.012 211.437 664.183 207.8Z"  />
  <path d="M739.964 253.109C754.352 243.953 764.816 224.448 765.883 201.33C766.974 178.187 758.391 157.605 744.944 146.853C730.557 156.009 720.114 175.491 719.036 198.622C717.935 221.752 726.528 242.347 739.964 253.109Z"  />
  <path d="M679.512 176.867C682.048 161.342 674.508 141.47 658.355 125.317C642.177 109.162 621.697 101.039 605.244 102.68C602.732 118.227 610.248 138.075 626.424 154.23C642.59 170.384 663.058 178.508 679.512 176.867Z"  />
  <path d="M689.894 125.316C698.523 113.337 700.426 93.9344 693.416 74.3844C686.418 54.7984 672.385 40.2844 657.71 35.4203C649.082 47.3984 647.188 66.7891 654.188 86.3625C661.21 105.938 675.218 120.428 689.894 125.316Z"  />
  <path d="M624.291 69.0609C626.585 54.6047 619.494 36.1328 604.383 21.1703C589.25 6.18594 570.158 -1.28438 554.875 0.287496C552.569 14.7781 559.683 33.2281 574.794 48.2016C589.905 63.1859 608.996 70.6562 624.291 69.0609Z"  />
  <path d="M796.577 296.306C778.53 297.42 758.646 309.788 745.428 330.119C732.211 350.416 729.228 373.236 735.883 389.631C753.931 388.528 773.838 376.15 787.032 355.83C800.238 335.522 803.244 312.691 796.577 296.306Z" />
</symbol>

<symbol id="number" width="50" height="70" viewBox="0 0 108 303" >
  <path d="M102.706 0L49.5656 0.012517C46.0891 0.012517 43.1297 1.00001 40.6406 2.97189L3.45938 25.5969C0.987507 27.5938 0 29.5563 0 32.5391L0.0156403 93.9797C0.0156403 97.961 2.48281 98.936 5.46563 96.9406L39.6797 
  78.3063H40.661L40.7234 297.727C40.7234 300.688 42.7141 302.661 45.6859 302.661L102.795 
  302.65C105.778 302.65 107.747 300.664 107.747 297.705L107.659 4.93283C107.663 1.96252 105.689 0 102.706 0Z"
   />
</symbol>


<symbol id="vectorhand" viewBox="0 0 24 24" fill="none" xmlns="http://www.w3.org/2000/svg">
<path d="M4 21V18.5C4 15.4624 6.46243 13 9.5 13H13.5M8 21V18M16 6.5C16 8.70914 14.2091 10.5 12 10.5C9.79086 10.5 8 8.70914 8 6.5C8 4.29086 9.79086 2.5 12 2.5C14.2091 2.5 16 4.29086 16 6.5ZM17.5 12.9998C17.0439 12.3927 16.3178 
12 15.5 12C14.1193 12 13 13.1193 13 14.5C13 15.1195 13.2253 15.6864 13.5985 16.1231L17.5 21L21.4015 16.1231C21.7747 
15.6864 22 15.1195 22 14.5C22 13.1193 20.8807 12 19.5 12C18.6822 12 17.9561 12.3927 17.5 12.9998Z"  stroke-width="0.5"/>
</symbol>

<symbol id="vectorup" viewBox="0 0 48 48"  fill="none"  xmlns="http://www.w3.org/2000/svg"><defs>
</defs>
<path class="cls-1" d="M33.37,32.57l.12-4.07a9.46,9.46,0,0,0,1-.81C42.08,20,43.77,8.41,41.67,6.34S28,6,20.3,13.59a10.8,10.8,0,0,0-.81,1l-4.07.12A4,4,0,0,0,12,16.75L5.63,28.41a1,1,0,0,0,1.29,1.36l8.58-4.13a13.63,13.63,0,0,0,0,3.72L11.14,35a.71.71,0,0,0,0,.91l.47.44.44.47a.72.72,0,0,0,.92,0l5.63-4.39a13.63,13.63,0,0,0,3.72,0L18.3,41.1a1,1,0,0,0,1.3,1.28L31.29,36a4,4,0,0,0,2.08-3.38ZM38,10.06a2.06,2.06,0,1,1-2.92,0,2.06,2.06,0,0,1,2.92,0Zm-9.1,9.1a3.44,3.44,0,1,1,4.87,0,3.44,3.44,0,0,1-4.87,0Zm0,0"/>
</symbol>


<symbol id="idea" viewBox="0 0 800 800" fill="none" xmlns="http://www.w3.org/2000/svg">
  <g clip-path="url(#clip0_17917_1282)">
    <path d="M404.906 96.9089C275.205 96.9089 169.676 202.418 169.676 332.119C169.676 418.816 216.736 497.493 292.908 538.772L288.544 574.774C288.544 595.762 299.079 614.307 315.119 625.469C303.834 632.01 296.081 644.404 296.081 658.77C296.081 673.546 304.265 686.248 316.094 692.615C309.871 699.207 305.98 708.028 305.98 717.783C305.98 738.053 322.481 754.565 342.761 754.565H343.973C343.963 754.678 343.911 754.77 343.911 754.883C343.911 780.184 372.365 800.003 408.665 800.003C422.886 800.003 436.348 796.912 447.582 791.09C451.515 789.067 453.045 784.23 451.002 780.297C448.968 776.385 444.163 774.814 440.209 776.878C431.368 781.447 420.165 783.984 408.665 783.984C382.244 783.984 359.93 770.655 359.93 754.873C359.93 754.76 359.869 754.667 359.858 754.554H467.031C487.301 754.554 503.812 738.053 503.812 717.773C503.812 699.782 490.802 684.831 473.715 681.669C472.74 681.237 471.672 680.991 470.532 680.991H467.041H342.772H332.863C321.413 680.991 312.1 671.02 312.1 658.76C312.1 646.489 321.413 636.518 332.863 636.518H350.288H459.494H476.93C488.379 636.518 497.692 646.489 497.692 658.76C497.692 665.198 497.692 665.198 493.205 671.4C490.617 674.974 491.418 679.985 495.002 682.572C498.565 685.15 503.576 684.359 506.174 680.775C513.146 671.154 513.711 669.5 513.711 658.749C513.711 637.658 497.21 620.489 476.93 620.489H459.494H350.288C325.069 620.489 304.552 599.962 304.481 575.718L309.45 535.209L305.158 527.118C231.461 489.381 185.695 414.657 185.695 332.119C185.695 211.249 284.026 112.918 404.906 112.918C525.777 112.918 624.097 211.249 624.097 332.119C624.097 414.647 578.321 489.381 504.644 527.148L500.352 535.25L505.25 574.774C505.25 587.055 500.393 598.617 491.572 607.304C488.42 610.405 488.389 615.478 491.49 618.62C494.591 621.762 499.664 621.803 502.806 618.702C514.718 606.965 521.279 591.367 521.207 573.798L516.915 538.762C593.056 497.472 640.116 418.806 640.116 332.109C640.116 202.428 534.597 96.9089 404.906 96.9089ZM342.772 697.028H467.041C478.49 697.028 487.804 706.341 487.804 717.791C487.804 729.24 478.49 738.553 467.041 738.553H342.772C331.322 738.553 322.009 729.24 322.009 717.791C322.009 706.344 331.322 697.028 342.772 697.028Z" fill="#f4efec" />
    <path d="M502.199 456.355C505.228 455.615 507.087 452.566 506.347 449.526C505.608 446.497 502.507 444.638 499.529 445.378C487.186 448.407 473.344 444.207 462.521 434.206C462.511 434.185 462.491 434.165 462.47 434.154C471.578 422.161 475.922 407.343 474.443 393.111C473.642 385.482 471.055 380.265 466.536 377.164C462.275 374.248 457.223 373.796 452.315 375.891C445.075 378.982 438.791 387.597 437.364 396.366C435.259 409.263 438.924 422.756 447.283 434.062C440.773 439.905 433.051 443.406 425.021 444.084C415.985 444.854 406.579 441.311 399.114 434.688C405.08 424.933 408.704 414.644 410.892 406.09C413.489 395.966 412.175 388.459 407.01 383.777C403.293 380.419 398.456 379.321 393.415 380.655C386.175 382.586 379.378 389.373 376.882 397.136C372.775 409.818 375.64 423.804 384.697 435.664C381.329 439.905 377.365 443.827 372.672 447.123C372.036 447.575 371.368 448.006 370.721 448.417C365.71 434.811 359.169 421.781 350.749 409.51C340.819 395.072 331.311 393.255 325.067 394.333C321.094 394.98 317.274 397.003 313.68 400.309C306.482 406.974 302.713 417.037 303.38 427.921C304.12 440.213 310.147 451.59 319.492 458.357C331.763 467.229 348.49 469.067 363.965 463.984C376.656 506.896 375.219 555.394 371.029 602.742C370.752 605.854 373.052 608.595 376.164 608.862C376.328 608.873 376.492 608.883 376.667 608.883C379.552 608.883 382.017 606.665 382.283 603.728C386.627 554.665 388.044 504.309 374.397 459.374C376.03 458.45 377.622 457.443 379.172 456.355C384.358 452.72 388.783 448.469 392.552 443.909C402.184 452.052 414.331 456.283 425.976 455.328C436.501 454.435 446.492 449.937 454.83 442.451C454.841 442.461 454.841 442.461 454.851 442.472C468.446 455.071 486.139 460.247 502.199 456.355ZM326.105 449.208C319.564 444.474 315.169 436.064 314.645 427.244C314.183 419.655 316.565 413.042 321.35 408.606C323.25 406.85 325.17 405.772 326.895 405.474C327.265 405.423 327.614 405.392 327.963 405.392C333.354 405.392 338.642 411.872 341.425 415.917C349.465 427.613 355.678 440.12 360.412 453.223C348.346 457.127 335.305 455.852 326.105 449.208ZM391.392 425.501C386.442 417.45 385.056 408.588 387.644 400.61C388.948 396.554 392.85 392.498 396.341 391.573C396.803 391.45 397.204 391.389 397.542 391.389C398.446 391.389 399.001 391.748 399.422 392.138C401.188 393.74 401.373 397.704 399.956 403.279C398.241 409.972 395.561 417.858 391.392 425.501ZM448.515 398.184C449.316 393.296 453.095 387.843 456.761 386.272C457.418 385.985 457.973 385.872 458.435 385.872C459.153 385.872 459.698 386.149 460.16 386.467C461.731 387.546 462.778 390.246 463.22 394.282C464.298 404.715 461.238 415.989 454.943 425.272C449.388 416.883 447.037 407.284 448.515 398.184Z" fill="#f4efec" />
    <path d="M460.56 459.407C439.335 505.656 433.667 555.017 443.175 604.983C444.531 612.12 455.425 609.101 454.07 601.985C445.178 555.274 450.456 508.388 470.315 465.116C473.323 458.542 463.589 452.792 460.56 459.407Z" fill="#f4efec" />
    <path d="M500.031 158.479C493.727 154.844 488.028 164.599 494.332 168.234C549.638 200.076 580.67 260.126 575.156 323.627C574.519 330.866 585.825 330.825 586.451 323.627C592.294 256.296 558.531 192.159 500.031 158.479Z" fill="#f4efec" />
    <path d="M579.338 382.884C585.191 372.287 586.947 360.786 584.914 348.895C583.692 341.748 572.807 344.778 574.019 351.904C575.528 360.704 573.875 369.401 569.583 377.185C566.061 383.564 575.816 389.261 579.338 382.884Z" fill="#f4efec" />
    <path d="M240.745 231.424C223.668 257.598 214.55 286.884 213.492 318.11C213.246 325.38 224.541 325.37 224.788 318.11C225.784 288.711 234.43 261.767 250.5 237.133C254.474 231.023 244.698 225.357 240.745 231.424Z" fill="#f4efec" />
    <path d="M214.364 346.249C211.797 360.224 214.22 373.994 221.962 385.977C225.895 392.056 235.681 386.409 231.718 380.278C225.669 370.924 223.236 360.265 225.259 349.247C226.563 342.141 215.678 339.089 214.364 346.249Z" fill="#f4efec" />
    <path d="M389.104 41.2948V5.4552C389.104 -1.81489 377.809 -1.82516 377.809 5.4552V41.2922C377.809 48.5623 389.104 48.5751 389.104 41.2948Z" fill="#f4efec" />
    <path d="M682.701 141.954C669.187 150.939 655.664 159.924 642.15 168.909C636.123 172.914 641.771 182.71 647.849 178.664C661.363 169.679 674.886 160.694 688.4 151.709C694.427 147.705 688.78 137.908 682.701 141.954Z" fill="#f4efec" />
    <path d="M118.682 209.308C113.527 204.163 105.538 212.142 110.693 217.297C120.253 226.846 129.813 236.406 139.362 245.966C144.517 251.111 152.506 243.132 147.351 237.977C137.791 228.428 128.242 218.868 118.682 209.308Z" fill="#f4efec" />
    <path d="M239.181 115.567C243.248 121.543 253.044 115.895 248.936 109.868C241.666 99.1886 234.406 88.4991 227.126 77.8199C223.06 71.8436 213.274 77.481 217.381 83.5189C224.651 94.1956 231.921 104.885 239.181 115.567Z" fill="#f4efec" />
    <path d="M541.445 98.9601C548.335 90.3756 555.215 81.7809 562.105 73.1964C566.613 67.5796 558.665 59.5393 554.116 65.2075C547.226 73.8023 540.346 82.3867 533.456 90.9712C528.948 96.588 536.896 104.631 541.445 98.9601Z" fill="#f4efec" />
  </g>
  <defs>
    <clipPath id="clip0_17917_1282">
      <rect width="800" height="800" fill="white" />
    </clipPath>
  </defs>
</symbol>


<symbol id="vectorupclock" height="115" viewBox="0 0 48 48" fill="none" xmlns="http://www.w3.org/2000/svg"><defs><style>.a,.b,.c{fill:none;stroke:#000000;}.a,.c{stroke-linecap:round;stroke-linejoin:round;}.b{stroke-miterlimit:10;}.c{stroke-width:0.9587px;}</style></defs><circle class="a" cx="24" cy="24" r="21.5"/><path class="b" d="M25.5,24A1.5,1.5,0,1,1,24,22.5,1.5,1.5,0,0,1,25.5,24Z"/><path class="c" d="M25.4007,23.476,37.98,19.4967"/><path class="c" d="M10.6755,37.3158,22.9,25.0112"/>
</symbol>

<symbol id="buttontop" viewBox="0 0 64 64" xmlns="http://www.w3.org/2000/svg" fill="none" ><polyline points="40 20 32 12 24 20"/><line x1="32" y1="12" x2="32" y2="52"/>
</symbol>

</defs>
</svg>