<svg version="1.1" xmlns="http://www.w3.org/2000/svg" xmlns:xlink="http://www.w3.org/1999/xlink">
<defs>

<symbol id="logo" viewBox="0 0 205 61" fill="none">
<path d="M41.7845 15.6701C41.7845 14.3226 41.7845 13.2445 41.7845 11.897C41.7845 11.0885 41.7845 10.0104 41.7845 9.20189H40.7462C36.0738 9.20189 32.6994 12.7055 32.6994 17.5567V20.5213C32.6994 21.0603 32.6994 21.5994 32.6994 22.1384V23.2164C32.6994 24.564 32.6994 25.9115 32.6994 27.2591C32.6994 31.8407 28.8057 35.8834 24.393 35.8834C19.7207 35.8834 16.0866 32.1102 16.0866 27.2591C16.0866 26.4505 16.0866 25.3725 16.0866 24.564C16.0866 23.4859 16.0866 22.4079 16.0866 21.3298C16.0866 19.4433 16.0866 17.8262 15.827 15.9396C15.3079 12.975 12.7121 10.0104 9.59726 9.47136C8.81854 9.20189 7.78024 9.20189 6.74194 9.20189V22.1384V27.7981C6.74194 29.4151 7.00152 31.0322 7.52067 32.9188C9.33768 38.5785 13.4909 42.6211 18.6824 44.5077C23.8738 46.3943 29.5845 45.5858 33.9972 42.0821C38.6696 38.848 41.2653 34.2663 41.5249 28.6066C41.7845 24.564 41.7845 19.9823 41.7845 15.6701Z" fill="white"/>
<path d="M29.4735 55.364C36.3073 52.5494 52.427 43.8555 52.427 24.4636V12.7482C52.427 9.44774 52.427 7.79503 51.7204 6.53317C51.0983 5.42213 50.1029 4.51948 48.8819 3.95337C47.4937 3.3098 42.044 1.86465 42.044 1.86465C42.044 1.86465 32.5991 0 26.4696 0C20.3401 0 10.8951 1.86465 10.8951 1.86465C10.8951 1.86465 5.44288 3.3098 4.05474 3.95337C2.83368 4.51948 1.84166 5.42213 1.2195 6.53317C0.512207 7.79626 0.512207 9.45097 0.512207 12.7579V24.4636C0.512207 43.8554 16.6311 52.5495 23.4649 55.364C24.1894 55.6624 24.5534 55.8113 25.3734 55.9394C25.8906 56.0202 27.0519 56.0202 27.5691 55.9394C28.3863 55.8118 28.7465 55.6634 29.466 55.3671L29.4735 55.364Z" fill="#3C3C43"/>
<path d="M44.4401 15.8494C44.4401 14.5589 44.4401 13.5265 44.4401 12.2361C44.4401 11.4618 44.4401 10.4294 44.4401 9.65517H43.3751C38.583 9.65517 35.122 13.0104 35.122 17.656V20.4951C35.122 21.0112 35.122 21.5274 35.122 22.0436V23.076C35.122 24.3665 35.122 25.6569 35.122 26.9474C35.122 31.3349 31.1286 35.2063 26.6027 35.2063C21.8105 35.2063 18.0833 31.593 18.0833 26.9474C18.0833 26.1731 18.0833 25.1407 18.0833 24.3665C18.0833 23.3341 18.0833 22.3017 18.0833 21.2693C18.0833 19.4627 18.0833 17.9141 17.8171 16.1075C17.2846 13.2685 14.6223 10.4294 11.4276 9.91323C10.6289 9.65517 9.56394 9.65517 8.49902 9.65517V22.0436V27.4636C8.49902 29.0121 8.76525 30.5607 9.29771 32.3673C11.1613 37.7873 15.421 41.6586 20.7456 43.4653C26.0702 45.272 31.9273 44.4977 36.4532 41.1425C41.2453 38.0454 43.9076 33.6578 44.1738 28.2378C44.4401 24.3665 44.4401 19.9789 44.4401 15.8494Z" fill="white"/>
<path d="M82.21 45.405C81.1 45.405 80.2 45.15 79.51 44.64C78.82 44.1 78.28 43.275 77.89 42.165L69.115 17.73C68.635 16.38 68.71 15.24 69.34 14.31C70 13.35 71.155 12.87 72.805 12.87C73.915 12.87 74.785 13.14 75.415 13.68C76.045 14.19 76.54 15 76.9 16.11L83.605 36.225H81.49L88.69 16.11C89.11 15 89.635 14.19 90.265 13.68C90.895 13.14 91.705 12.87 92.695 12.87C93.685 12.87 94.48 13.14 95.08 13.68C95.68 14.19 96.175 15.015 96.565 16.155L103.315 36.225H101.515L108.4 16.11C108.76 15 109.24 14.19 109.84 13.68C110.47 13.14 111.34 12.87 112.45 12.87C113.83 12.87 114.835 13.35 115.465 14.31C116.125 15.24 116.2 16.38 115.69 17.73L106.825 42.21C106.435 43.29 105.895 44.1 105.205 44.64C104.545 45.15 103.66 45.405 102.55 45.405C101.41 45.405 100.495 45.15 99.805 44.64C99.145 44.1 98.62 43.275 98.23 42.165L91.885 24.345H93.01L86.53 42.21C86.11 43.29 85.57 44.1 84.91 44.64C84.25 45.15 83.35 45.405 82.21 45.405ZM132.957 45C131.547 45 130.467 44.64 129.717 43.92C128.997 43.17 128.637 42.105 128.637 40.725V17.55C128.637 16.17 128.997 15.12 129.717 14.4C130.467 13.65 131.547 13.275 132.957 13.275H148.212C149.292 13.275 150.102 13.545 150.642 14.085C151.182 14.625 151.452 15.405 151.452 16.425C151.452 17.475 151.182 18.285 150.642 18.855C150.102 19.395 149.292 19.665 148.212 19.665H136.557V25.695H147.222C148.272 25.695 149.067 25.965 149.607 26.505C150.177 27.045 150.462 27.84 150.462 28.89C150.462 29.94 150.177 30.735 149.607 31.275C149.067 31.815 148.272 32.085 147.222 32.085H136.557V38.61H148.212C149.292 38.61 150.102 38.895 150.642 39.465C151.182 40.005 151.452 40.785 151.452 41.805C151.452 42.855 151.182 43.65 150.642 44.19C150.102 44.73 149.292 45 148.212 45H132.957ZM168.598 45C167.188 45 166.108 44.64 165.358 43.92C164.638 43.17 164.278 42.105 164.278 40.725V17.55C164.278 16.17 164.638 15.12 165.358 14.4C166.108 13.65 167.188 13.275 168.598 13.275H179.578C181.858 13.275 183.793 13.62 185.383 14.31C187.003 14.97 188.233 15.915 189.073 17.145C189.913 18.375 190.333 19.815 190.333 21.465C190.333 23.325 189.793 24.915 188.713 26.235C187.663 27.555 186.223 28.455 184.393 28.935V28.215C186.553 28.605 188.218 29.475 189.388 30.825C190.588 32.175 191.188 33.9 191.188 36C191.188 38.79 190.183 40.995 188.173 42.615C186.193 44.205 183.478 45 180.028 45H168.598ZM172.198 38.925H178.903C180.433 38.925 181.543 38.64 182.233 38.07C182.953 37.47 183.313 36.585 183.313 35.415C183.313 34.245 182.953 33.375 182.233 32.805C181.543 32.235 180.433 31.95 178.903 31.95H172.198V38.925ZM172.198 25.875H178.093C179.593 25.875 180.688 25.605 181.378 25.065C182.098 24.525 182.458 23.7 182.458 22.59C182.458 21.48 182.098 20.67 181.378 20.16C180.688 19.62 179.593 19.35 178.093 19.35H172.198V25.875Z" fill="#3C3C43"/>
</symbol>

<symbol  viewBox="0 0 45 45"  >
  <rect x="2" y="2" width="38" height="38" rx="19" stroke="#82A5CE" stroke-width="4"/>
  <g clip-path="url(#clip0_2001_96)">
    <g clip-path="url(#clip1_2001_96)">
      <path  fill-rule="evenodd" clip-rule="evenodd" d="M16.4732 20.9366L13.2473 19.7549C12.9196 19.6344 12.9168 19.1804 13.2435 19.0568L26.4826 14.0442C26.7633 13.9377 27.0529 14.179 26.9917 14.4683L24.6159 25.6847C24.5599 25.9495 24.2435 26.0696 24.0202 25.9103L20.777 23.5993C20.58 23.459 20.3115 23.4665 20.1231 23.6172L18.3249 25.0559C18.1161 25.2234 17.8017 25.1301 17.7218 24.8777L16.4732 20.9366ZM23.8251 16.4966L17.5205 20.3076C17.2789 20.454 17.1651 20.7404 17.2432 21.0085L17.9249 23.3593C17.9733 23.5258 18.2196 23.5087 18.2431 23.3366L18.4203 22.0475C18.4537 21.8048 18.5717 21.5812 18.7546 21.4141L23.9577 16.6672C24.055 16.5786 23.9384 16.4283 23.8251 16.4966Z" fill="#3C3C43"/>
    </g>
  </g>
</symbol>

<symbol id="telegram"  viewBox="0 0 24 24" 
xmlns="http://www.w3.org/2000/svg">
<path d="m20.665 3.717-17.73 6.837c-1.21.486-1.203 1.161-.222
 1.462l4.552 1.42 10.532-6.645c.498-.303.953-.14.579.192l-8.533 
 7.701h-.002l.002.001-.314 4.692c.46 0 .663-.211.921-.46l2.211-2.15
  4.599 3.397c.848.467 1.457.227 1.668-.785l3.019-14.228c.309-1.239-.473-1.8-1.282-1.434z"/>
</symbol>


<symbol  version="1.1" id="whatsapp"  
	 viewBox="0 0 308 308" xml:space="preserve">
<g id="XMLID_468_">
	<path id="XMLID_469_" d="M227.904,176.981c-0.6-0.288-23.054-11.345-27.044-12.781c-1.629-0.585-3.374-1.156-5.23-1.156
		c-3.032,0-5.579,1.511-7.563,4.479c-2.243,3.334-9.033,11.271-11.131,13.642c-0.274,0.313-0.648,0.687-0.872,0.687
		c-0.201,0-3.676-1.431-4.728-1.888c-24.087-10.463-42.37-35.624-44.877-39.867c-0.358-0.61-0.373-0.887-0.376-0.887
		c0.088-0.323,0.898-1.135,1.316-1.554c1.223-1.21,2.548-2.805,3.83-4.348c0.607-0.731,1.215-1.463,1.812-2.153
		c1.86-2.164,2.688-3.844,3.648-5.79l0.503-1.011c2.344-4.657,0.342-8.587-0.305-9.856c-0.531-1.062-10.012-23.944-11.02-26.348
		c-2.424-5.801-5.627-8.502-10.078-8.502c-0.413,0,0,0-1.732,0.073c-2.109,0.089-13.594,1.601-18.672,4.802
		c-5.385,3.395-14.495,14.217-14.495,33.249c0,17.129,10.87,33.302,15.537,39.453c0.116,0.155,0.329,0.47,0.638,0.922
		c17.873,26.102,40.154,45.446,62.741,54.469c21.745,8.686,32.042,9.69,37.896,9.69c0.001,0,0.001,0,0.001,0
		c2.46,0,4.429-0.193,6.166-0.364l1.102-0.105c7.512-0.666,24.02-9.22,27.775-19.655c2.958-8.219,3.738-17.199,1.77-20.458
		C233.168,179.508,230.845,178.393,227.904,176.981z"/>
	<path id="XMLID_470_" d="M156.734,0C73.318,0,5.454,67.354,5.454,150.143c0,26.777,7.166,52.988,20.741,75.928L0.212,302.716
		c-0.484,1.429-0.124,3.009,0.933,4.085C1.908,307.58,2.943,308,4,308c0.405,0,0.813-0.061,1.211-0.188l79.92-25.396
		c21.87,11.685,46.588,17.853,71.604,17.853C240.143,300.27,308,232.923,308,150.143C308,67.354,240.143,0,156.734,0z
		 M156.734,268.994c-23.539,0-46.338-6.797-65.936-19.657c-0.659-0.433-1.424-0.655-2.194-0.655c-0.407,0-0.815,0.062-1.212,0.188
		l-40.035,12.726l12.924-38.129c0.418-1.234,0.209-2.595-0.561-3.647c-14.924-20.392-22.813-44.485-22.813-69.677
		c0-65.543,53.754-118.867,119.826-118.867c66.064,0,119.812,53.324,119.812,118.867
		C276.546,215.678,222.799,268.994,156.734,268.994z"/>
</g>
</symbol>

<symbol id="logo1" viewBox="0 0 149 38" fill="none" >
<g clip-path="url(#clip0_150_1938)">
<path d="M38.0769 6.63668C38.0769 5.25402 38.0769 4.14789 38.0769 2.76528C38.0769 1.9357 38.0769 0.829579 38.0769 0H36.9487C31.8718 0 28.2051 3.59486 28.2051 8.57233V11.6142C28.2051 12.1672 28.2051 12.7203 28.2051 13.2733V14.3794C28.2051 15.7621 28.2051 17.1447 28.2051 18.5274C28.2051 23.2283 23.9744 27.3763 19.1795 27.3763C14.1026 27.3763 10.1538 23.5049 10.1538 18.5274C10.1538 17.6977 10.1538 16.5917 10.1538 15.7621C10.1538 14.656 10.1538 13.5499 10.1538 12.4437C10.1538 10.508 10.1538 8.84887 9.87179 6.91317C9.30769 3.8714 6.48718 0.829578 3.10256 0.27649C2.25641 -4.6245e-07 1.12821 0 0 0V13.2733V19.0804C0 20.7396 0.282051 22.3987 0.846154 24.3344C2.82051 30.1415 7.33333 34.2894 12.9744 36.2251C18.6154 38.1608 24.8205 37.3313 29.6154 33.7364C34.6923 30.4181 37.5128 25.7171 37.7949 19.91C38.0769 15.7621 38.0769 11.0611 38.0769 6.63668Z" fill="white"/>
<path d="M49.3969 36.552C48.4369 36.552 47.6209 36.136 46.9489 35.304C46.3089 34.472 45.9889 33.496 45.9889 32.376C45.9889 29.912 47.2849 26.84 49.8769 23.16C51.1889 21.304 52.5649 19.576 54.0049 17.976C55.4449 16.376 56.9649 14.904 58.5649 13.56C61.7969 10.872 64.2609 9.528 65.9569 9.528C66.5329 9.528 66.8209 9.704 66.8209 10.056C66.8209 10.184 66.7409 10.28 66.5809 10.344C64.5649 11.368 62.6769 12.648 60.9169 14.184C60.0209 14.952 59.0609 15.864 58.0369 16.92C57.0449 17.976 55.9569 19.16 54.7729 20.472C52.4369 23.096 50.6129 25.592 49.3009 27.96C48.0209 30.328 47.3809 32.184 47.3809 33.528C47.3809 34.744 47.8769 35.352 48.8689 35.352C49.7009 35.352 50.4689 35.208 51.1729 34.92C51.8129 34.696 53.0449 33.768 54.8689 32.136C55.7969 31.336 56.9809 30.2 58.4209 28.728C59.8929 27.224 61.6209 25.384 63.6049 23.208C67.5729 18.856 69.7969 16.68 70.2769 16.68C70.7569 16.68 70.9969 16.872 70.9969 17.256C70.8049 20.168 70.7089 22.344 70.7089 23.784C70.7089 29.96 71.4289 33.048 72.8689 33.048C74.3089 33.048 75.5889 31.624 76.7089 28.776C77.8289 25.896 78.3889 23.192 78.3889 20.664C78.3889 16.792 77.3969 14.536 75.4129 13.896C75.3169 13.832 75.2689 13.784 75.2689 13.752C75.2689 13.432 75.7809 13.272 76.8049 13.272C77.8289 13.272 78.6609 13.944 79.3009 15.288C79.9409 16.6 80.2609 18.376 80.2609 20.616C80.2609 24.168 79.5409 27.272 78.1009 29.928C76.6609 32.552 74.8369 33.864 72.6289 33.864C70.0049 33.864 68.6929 31.176 68.6929 25.8C68.6929 23.72 68.8849 21.272 69.2689 18.456C68.8209 18.904 68.0849 19.736 67.0609 20.952C66.0369 22.168 64.6769 23.768 62.9809 25.752C61.3489 27.704 59.8609 29.368 58.5169 30.744C57.2049 32.12 56.0369 33.224 55.0129 34.056C52.9649 35.72 51.0929 36.552 49.3969 36.552ZM98.9147 35.208C96.4827 35.208 94.4987 34.504 92.9627 33.096C91.4587 31.72 90.7067 29.832 90.7067 27.432C90.7067 27.08 90.7227 26.696 90.7547 26.28C90.8187 25.864 90.8827 25.416 90.9467 24.936C90.7867 24.936 90.5787 24.664 90.3227 24.12C90.0987 23.576 89.9867 23.224 89.9867 23.064C89.9867 22.872 90.0507 22.776 90.1787 22.776L91.5707 23.064C92.8827 19.32 95.4267 16.04 99.2027 13.224C103.011 10.376 106.707 8.952 110.291 8.952C111.539 8.952 112.387 9.08 112.835 9.336C113.187 8.152 113.539 7.496 113.891 7.368C113.987 7.336 114.099 7.32 114.227 7.32C115.347 7.32 115.907 7.528 115.907 7.944C115.811 7.944 115.443 8.392 114.803 9.288C114.611 9.576 114.291 10.056 113.843 10.728C113.427 11.368 113.091 11.896 112.835 12.312C112.611 12.728 112.387 13.176 112.163 13.656C111.971 14.104 111.875 14.456 111.875 14.712L112.067 15.432C112.067 15.496 112.035 15.528 111.971 15.528C111.491 15.528 111.251 14.952 111.251 13.8C111.251 12.68 111.619 11.48 112.355 10.2C112.131 10.168 111.907 10.152 111.683 10.152C111.491 10.12 111.315 10.104 111.155 10.104C107.827 10.104 104.403 11.448 100.883 14.136C97.3307 16.792 94.9627 19.8 93.7787 23.16C94.9627 23.16 96.1467 23.16 97.3307 23.16C98.5467 23.128 99.6347 23.112 100.595 23.112C101.587 23.08 102.323 23.048 102.803 23.016C103.763 22.952 104.739 22.84 105.731 22.68C106.755 22.52 107.779 22.312 108.803 22.056C109.027 22.056 109.139 22.136 109.139 22.296C109.139 22.904 107.139 23.512 103.139 24.12C99.1067 24.696 95.7947 25.016 93.2027 25.08C93.1067 25.688 93.0587 26.264 93.0587 26.808C93.0587 28.952 93.7787 30.696 95.2187 32.04C96.6587 33.352 98.4987 34.008 100.739 34.008C105.219 34.008 109.171 32.152 112.595 28.44C113.043 27.992 113.363 27.768 113.555 27.768C113.683 27.768 113.747 27.864 113.747 28.056C113.747 28.344 113.603 28.648 113.315 28.968C111.619 30.888 109.395 32.408 106.643 33.528C103.859 34.648 101.283 35.208 98.9147 35.208ZM136.302 34.632C134.926 34.632 133.534 34.392 132.126 33.912C130.75 33.496 130.062 32.92 130.062 32.184C130.062 32.12 130.094 32.088 130.158 32.088L130.446 32.184C131.182 32.664 132.11 32.904 133.23 32.904C135.95 32.904 138.35 32.248 140.43 30.936C142.478 29.656 143.502 28.408 143.502 27.192C143.502 25.944 142.686 24.92 141.054 24.12C140.158 23.672 139.262 23.352 138.366 23.16C137.502 22.968 136.686 22.872 135.918 22.872C134.638 22.872 133.598 23.048 132.798 23.4C132.478 23.368 132.318 23.16 132.318 22.776C132.318 22.328 132.654 22.008 133.326 21.816L134.862 21.576C138.414 20.616 141.182 19.384 143.166 17.88C145.15 16.344 146.142 14.632 146.142 12.744C146.142 11.816 145.614 11.064 144.558 10.488C143.502 9.912 141.902 9.624 139.758 9.624C137.646 9.624 135.87 9.816 134.43 10.2C133.726 10.36 132.798 10.632 131.646 11.016C130.526 11.368 129.118 11.832 127.422 12.408C124.19 13.496 122.51 14.04 122.382 14.04C121.838 14.04 121.566 13.656 121.566 12.888C121.566 12.536 121.678 12.312 121.902 12.216C127.918 9.816 133.71 8.616 139.278 8.616C145.71 8.616 148.926 10.184 148.926 13.32C148.926 14.984 147.79 16.664 145.518 18.36C144.398 19.192 143.134 19.912 141.726 20.52C140.35 21.128 138.83 21.64 137.166 22.056C139.63 22.248 141.598 22.872 143.07 23.928C144.542 24.952 145.278 26.36 145.278 28.152C145.278 29.88 144.382 31.4 142.59 32.712C140.83 33.992 138.734 34.632 136.302 34.632ZM125.982 37.656C125.438 37.656 124.958 37.224 124.542 36.36C124.158 35.496 123.966 34.488 123.966 33.336C123.966 29.144 126.286 23.144 130.926 15.336C132.27 12.808 133.166 11.544 133.614 11.544C134.062 11.544 134.542 11.656 135.054 11.88C135.566 12.072 135.822 12.264 135.822 12.456C135.822 12.488 135.806 12.536 135.774 12.6C128.862 22.616 125.406 30.024 125.406 34.824C125.406 35.432 125.534 36.024 125.79 36.6C126.046 37.176 126.206 37.464 126.27 37.464C126.206 37.592 126.11 37.656 125.982 37.656Z" fill="#2D85C4"/>
</g>
<defs>
<clipPath id="clip0_150_1938">
<rect width="149" height="38" fill="white"/>
</clipPath>
</defs>
</symbol>

<symbol id="logo2"  viewBox="0 0 205 61" fill="none" >

<path d="M67.04 45.09C66.59 45.09 66.23 44.955 65.96 44.685C65.7 44.415 65.57 44.06 65.57 43.62C65.57 43.19 65.7 42.845 65.96 42.585C66.23 42.315 66.59 42.18 67.04 42.18C67.51 42.18 67.87 42.315 68.12 42.585C68.38 42.845 68.51 43.19 68.51 43.62C68.51 44.06 68.38 44.415 68.12 44.685C67.87 44.955 67.51 45.09 67.04 45.09ZM81.2927 45.135C80.9227 45.135 80.6227 45.05 80.3927 44.88C80.1627 44.7 79.9827 44.425 79.8527 44.055L76.9277 35.91C76.7677 35.46 76.7927 35.08 77.0027 34.77C77.2227 34.45 77.6077 34.29 78.1577 34.29C78.5277 34.29 78.8177 34.38 79.0277 34.56C79.2377 34.73 79.4027 35 79.5227 35.37L81.7577 42.075H81.0527L83.4527 35.37C83.5927 35 83.7677 34.73 83.9777 34.56C84.1877 34.38 84.4577 34.29 84.7877 34.29C85.1177 34.29 85.3827 34.38 85.5827 34.56C85.7827 34.73 85.9477 35.005 86.0777 35.385L88.3277 42.075H87.7277L90.0227 35.37C90.1427 35 90.3027 34.73 90.5027 34.56C90.7127 34.38 91.0027 34.29 91.3727 34.29C91.8327 34.29 92.1677 34.45 92.3777 34.77C92.5977 35.08 92.6227 35.46 92.4527 35.91L89.4977 44.07C89.3677 44.43 89.1877 44.7 88.9577 44.88C88.7377 45.05 88.4427 45.135 88.0727 45.135C87.6927 45.135 87.3877 45.05 87.1577 44.88C86.9377 44.7 86.7627 44.425 86.6327 44.055L84.5177 38.115H84.8927L82.7327 44.07C82.5927 44.43 82.4127 44.7 82.1927 44.88C81.9727 45.05 81.6727 45.135 81.2927 45.135ZM103.542 45C103.072 45 102.712 44.88 102.462 44.64C102.222 44.39 102.102 44.035 102.102 43.575V35.85C102.102 35.39 102.222 35.04 102.462 34.8C102.712 34.55 103.072 34.425 103.542 34.425H108.627C108.987 34.425 109.257 34.515 109.437 34.695C109.617 34.875 109.707 35.135 109.707 35.475C109.707 35.825 109.617 36.095 109.437 36.285C109.257 36.465 108.987 36.555 108.627 36.555H104.742V38.565H108.297C108.647 38.565 108.912 38.655 109.092 38.835C109.282 39.015 109.377 39.28 109.377 39.63C109.377 39.98 109.282 40.245 109.092 40.425C108.912 40.605 108.647 40.695 108.297 40.695H104.742V42.87H108.627C108.987 42.87 109.257 42.965 109.437 43.155C109.617 43.335 109.707 43.595 109.707 43.935C109.707 44.285 109.617 44.55 109.437 44.73C109.257 44.91 108.987 45 108.627 45H103.542ZM120.755 45C120.285 45 119.925 44.88 119.675 44.64C119.435 44.39 119.315 44.035 119.315 43.575V35.85C119.315 35.39 119.435 35.04 119.675 34.8C119.925 34.55 120.285 34.425 120.755 34.425H124.415C125.175 34.425 125.82 34.54 126.35 34.77C126.89 34.99 127.3 35.305 127.58 35.715C127.86 36.125 128 36.605 128 37.155C128 37.775 127.82 38.305 127.46 38.745C127.11 39.185 126.63 39.485 126.02 39.645V39.405C126.74 39.535 127.295 39.825 127.685 40.275C128.085 40.725 128.285 41.3 128.285 42C128.285 42.93 127.95 43.665 127.28 44.205C126.62 44.735 125.715 45 124.565 45H120.755ZM121.955 42.975H124.19C124.7 42.975 125.07 42.88 125.3 42.69C125.54 42.49 125.66 42.195 125.66 41.805C125.66 41.415 125.54 41.125 125.3 40.935C125.07 40.745 124.7 40.65 124.19 40.65H121.955V42.975ZM121.955 38.625H123.92C124.42 38.625 124.785 38.535 125.015 38.355C125.255 38.175 125.375 37.9 125.375 37.53C125.375 37.16 125.255 36.89 125.015 36.72C124.785 36.54 124.42 36.45 123.92 36.45H121.955V38.625Z" fill="white"/>
<path d="M59.941 17.1942C59.941 15.9037 59.941 14.8714 59.941 13.5809C59.941 12.8067 59.941 11.7743 59.941 11H58.8761C54.084 11 50.623 14.3552 50.623 19.0008V21.8399C50.623 22.356 50.623 22.8723 50.623 23.3884V24.4208C50.623 25.7113 50.623 27.0017 50.623 28.2922C50.623 32.6798 46.6295 36.5512 42.1036 36.5512C37.3115 36.5512 33.5843 32.9379 33.5843 28.2922C33.5843 27.5179 33.5843 26.4856 33.5843 25.7113C33.5843 24.6789 33.5843 23.6465 33.5843 22.6142C33.5843 20.8075 33.5843 19.2589 33.318 17.4523C32.7856 14.6133 30.1233 11.7743 26.9285 11.2581C26.1298 11 25.0649 11 24 11V23.3884V28.8084C24 30.3569 24.2662 31.9055 24.7987 33.7121C26.6623 39.1321 30.922 43.0035 36.2466 44.8101C41.5712 46.6168 47.4282 45.8425 51.9541 42.4873C56.7463 39.3902 59.4086 35.0026 59.6748 29.5827C59.941 25.7113 59.941 21.3237 59.941 17.1942Z" fill="white"/>
</symbol>


<symbol  id="arrow" viewBox="0 0 64 64"  fill="none" ><polyline points="48 28 48 16 36 16"/><line x1="48" y1="16" x2="16" y2="48"/>
</symbol>


<symbol id="attach"  viewBox="0 0 24 24" fill="none" >
<g id="style=linear">
<g id="attach">
<path id="vector" d="M20.6475 10.6158L11.8855 19.3778C9.93289 21.3304 6.76706 21.3304 4.81444 19.3778C2.86182 17.4252 2.86182 14.2594 4.81444 12.3068L12.9462 4.17503C14.313 2.80819 16.5291 2.80819 17.8959 4.17503C19.2628 5.54186 19.2628 7.75794 17.8959 9.12478L10.1024 16.9183C9.32132 17.6994 8.05499 17.6994 7.27394 16.9183C6.4929 16.1373 6.49289 14.8709 7.27394 14.0899L14.468 6.89585"  stroke-width="1.5" stroke-linecap="round"/>
</g>
</g>
</symbol>




<symbol id="place"  viewBox="0 0 800 640" fill="none" >
  <path d="M218.361 585.486C191.347 576.881 164.337 579.486 147.453 590.455C153.856 608.789 173.694 626.23 200.719 634.8C227.722 643.383 254.737 640.8 271.614 629.82C265.212 611.497 245.369 594.022 218.361 585.486Z" />
  <path d="M197.818 556.434C211.065 542.734 217.593 518.973 213.189 493.753C208.787 468.547 194.618 448.616 177.558 440.55C164.323 454.237 157.767 478.011 162.183 503.23C166.583 528.428 180.764 548.392 197.818 556.434Z"  />
  <path d="M106.873 481.57C83.5539 466.85 57.0898 462.937 37.8945 469.511C38.8008 488.764 52.7648 510.334 76.0852 525.055C99.3992 539.762 125.857 543.675 145.059 537.091C144.145 517.825 130.188 496.291 106.873 481.57Z"  />
  <path d="M123.852 347.789C109.366 358.481 99.5287 379.673 99.6615 403.859C99.7865 428.047 109.844 448.825 124.443 458.933C138.933 448.217 148.766 427.048 148.635 402.852C148.504 378.675 138.446 357.908 123.852 347.789Z"  />
  <path d="M86.1533 308.514C103.981 304.889 122.375 289.858 133.183 267.933C144.019 246.008 144.364 223.036 135.839 207.8C117.997 211.437 99.5986 226.456 88.7923 248.405C77.9673 270.306 77.6048 293.289 86.1533 308.514Z"  />
  <path d="M60.0436 253.109C73.4842 242.347 82.0561 221.752 80.9655 198.622C79.8936 175.491 69.4467 156.009 55.0592 146.853C41.617 157.605 33.0311 178.187 34.1248 201.33C35.1858 224.447 45.6498 243.953 60.0436 253.109Z"  />
  <path d="M194.75 102.68C178.314 101.039 157.822 109.161 141.65 125.317C125.485 141.472 117.958 161.344 120.488 176.867C136.935 178.508 157.416 170.386 173.582 154.23C189.747 138.075 197.28 118.225 194.75 102.68Z" />
  <path d="M145.814 86.3641C152.812 66.7906 150.919 47.4 142.292 35.4219C127.622 40.2859 113.59 54.8 106.579 74.3859C99.5748 93.9359 101.475 113.339 110.114 125.317C124.772 120.428 138.803 105.937 145.814 86.3641Z" />
  <path d="M225.212 48.2031C240.334 33.2297 247.441 14.7797 245.135 0.289053C229.852 -1.28282 210.76 6.18749 195.621 21.1719C180.516 36.1328 173.426 54.6062 175.709 69.0625C191.004 70.6562 210.101 63.1859 225.212 48.2031Z"  />
  <path d="M54.5816 330.119C41.3597 309.788 21.4816 297.419 3.42687 296.306C-3.245 312.691 -0.232504 335.522 12.9722 355.831C26.1784 376.152 46.0737 388.531 64.1269 389.633C70.7816 373.237 67.7878 350.416 54.5816 330.119Z" />
  <path d="M581.642 585.486C554.634 594.022 534.795 611.497 528.383 629.82C545.261 640.8 572.269 643.383 599.289 634.8C626.309 626.228 646.147 608.789 652.548 590.455C635.659 579.484 608.662 576.881 581.642 585.486Z"  />
  <path d="M586.817 493.755C582.411 518.973 588.941 542.734 602.192 556.436C619.242 548.392 633.436 528.43 637.83 503.233C642.236 478.014 635.685 454.241 622.444 440.553C605.383 448.617 591.224 468.547 586.817 493.755Z"  />
  <path d="M693.131 481.57C669.819 496.291 655.855 517.826 654.938 537.091C674.144 543.675 700.614 539.762 723.917 525.055C747.242 510.333 761.217 488.764 762.123 469.511C742.927 462.937 716.458 466.85 693.131 481.57Z" />
  <path d="M676.148 347.789C661.555 357.908 651.481 378.675 651.376 402.85C651.239 427.048 661.072 448.216 675.54 458.931C690.156 448.823 700.208 428.045 700.334 403.858C700.472 379.672 690.64 358.481 676.148 347.789Z"  />
  <path d="M664.183 207.8C655.647 223.037 655.979 246.008 666.811 267.933C677.629 289.858 696.022 304.889 713.864 308.514C722.401 293.289 722.033 270.306 711.214 248.405C700.415 226.455 682.012 211.437 664.183 207.8Z"  />
  <path d="M739.964 253.109C754.352 243.953 764.816 224.448 765.883 201.33C766.974 178.187 758.391 157.605 744.944 146.853C730.557 156.009 720.114 175.491 719.036 198.622C717.935 221.752 726.528 242.347 739.964 253.109Z"  />
  <path d="M679.512 176.867C682.048 161.342 674.508 141.47 658.355 125.317C642.177 109.162 621.697 101.039 605.244 102.68C602.732 118.227 610.248 138.075 626.424 154.23C642.59 170.384 663.058 178.508 679.512 176.867Z"  />
  <path d="M689.894 125.316C698.523 113.337 700.426 93.9344 693.416 74.3844C686.418 54.7984 672.385 40.2844 657.71 35.4203C649.082 47.3984 647.188 66.7891 654.188 86.3625C661.21 105.938 675.218 120.428 689.894 125.316Z"  />
  <path d="M624.291 69.0609C626.585 54.6047 619.494 36.1328 604.383 21.1703C589.25 6.18594 570.158 -1.28438 554.875 0.287496C552.569 14.7781 559.683 33.2281 574.794 48.2016C589.905 63.1859 608.996 70.6562 624.291 69.0609Z"  />
  <path d="M796.577 296.306C778.53 297.42 758.646 309.788 745.428 330.119C732.211 350.416 729.228 373.236 735.883 389.631C753.931 388.528 773.838 376.15 787.032 355.83C800.238 335.522 803.244 312.691 796.577 296.306Z" />
</symbol>

<symbol id="number" width="50" height="70" viewBox="0 0 108 303" >
  <path d="M102.706 0L49.5656 0.012517C46.0891 0.012517 43.1297 1.00001 40.6406 2.97189L3.45938 25.5969C0.987507 27.5938 0 29.5563 0 32.5391L0.0156403 93.9797C0.0156403 97.961 2.48281 98.936 5.46563 96.9406L39.6797 
  78.3063H40.661L40.7234 297.727C40.7234 300.688 42.7141 302.661 45.6859 302.661L102.795 
  302.65C105.778 302.65 107.747 300.664 107.747 297.705L107.659 4.93283C107.663 1.96252 105.689 0 102.706 0Z"
   fill="black" />
</symbol>

</defs>
</svg>